<svg xmlns="http://www.w3.org/2000/svg" viewBox="0 0 500 1200">
<defs><style>
.sk{fill:#f0dcc8;stroke:#c4a088;stroke-width:1.5;stroke-linejoin:round}
.ml{fill:none;stroke:#c47858;stroke-width:1;opacity:0.45}
.gn{fill:#e8d0b8;stroke:#c4a088;stroke-width:1.2}
</style></defs>
<!-- torso -->
<path d="M 310 195 C 314 196 325 197 335 200 C 345 203 363 205 368 212 C 373 220 366 234 365 245 C 364 256 362 268 360 280 C 358 293 355 307 352 320 C 350 333 347 347 345 360 C 343 373 341 387 340 400 C 339 413 338 428 338 440 C 338 453 340 463 342 475 C 344 487 346 498 348 510 C 350 522 352 534 352 545 C 352 556 351 568 346 575 C 342 582 333 583 325 585 C 317 587 308 588 300 588 C 292 588 283 587 275 585 C 267 583 259 582 254 575 C 250 568 248 556 248 545 C 248 534 250 522 252 510 C 254 498 256 487 258 475 C 260 463 262 453 262 440 C 262 428 261 413 260 400 C 259 387 257 373 255 360 C 253 347 251 333 248 320 C 246 307 242 293 240 280 C 238 268 236 256 235 245 C 234 234 227 220 232 212 C 237 205 255 203 265 200 C 275 197 286 196 290 195 Z" class="sk"/>
<!-- head -->
<path d="M 290 195 C 288 192 280 183 276 176 C 272 169 268 160 265 152 C 262 144 260 136 258 128 C 256 120 255 113 255 105 C 255 97 255 89 256 82 C 257 75 259 68 262 62 C 265 56 270 52 275 48 C 280 44 286 42 290 40 C 294 38 297 38 300 38 C 303 38 306 38 310 40 C 314 42 320 44 325 48 C 330 52 335 56 338 62 C 341 68 343 75 344 82 C 345 89 345 97 345 105 C 345 113 344 120 342 128 C 340 136 338 144 335 152 C 332 160 328 169 324 176 C 320 183 312 192 310 195 Z" class="sk"/>
<!-- left_arm -->
<path d="M 232 212 C 228 213 216 214 208 218 C 200 222 192 228 186 235 C 180 242 176 251 172 262 C 168 273 165 287 162 300 C 159 313 158 327 156 340 C 154 353 153 367 152 380 C 151 393 149 407 148 418 C 147 429 147 437 146 445 C 145 453 145 458 144 468 C 143 478 141 492 140 505 C 139 518 137 533 136 545 C 135 557 134 567 133 575 C 132 583 131 588 130 595 C 129 602 128 610 126 618 C 124 626 122 635 120 642 C 118 649 117 654 116 660 C 115 666 113 673 113 678 C 113 683 113 688 114 692 C 115 696 118 700 120 703 C 122 706 125 710 128 710 C 131 710 134 707 136 704 C 138 701 139 696 140 692 C 141 688 143 678 144 678 C 145 678 146 688 148 692 C 150 696 152 702 154 703 C 156 704 160 701 162 698 C 164 695 165 690 166 685 C 167 680 168 674 168 668 C 168 662 168 655 168 648 C 168 641 167 635 166 628 C 165 621 163 614 164 608 C 165 603 172 601 174 595 C 176 590 175 583 176 575 C 177 567 179 557 180 545 C 181 533 182 518 184 505 C 186 492 188 478 190 468 C 192 458 193 453 194 445 C 195 437 196 429 198 418 C 200 407 202 393 204 380 C 206 367 208 353 210 340 C 212 327 215 312 218 300 C 221 288 223 278 226 268 C 229 258 234 249 238 242 C 242 235 246 228 248 224 C 250 220 251 217 252 216 Z" class="sk"/>
<!-- right_arm -->
<path d="M 368 212 C 372 213 384 214 392 218 C 400 222 408 228 414 235 C 420 242 424 251 428 262 C 432 273 435 287 438 300 C 441 313 442 327 444 340 C 446 353 447 367 448 380 C 449 393 451 407 452 418 C 453 429 453 437 454 445 C 455 453 455 458 456 468 C 457 478 459 492 460 505 C 461 518 463 533 464 545 C 465 557 466 567 467 575 C 468 583 469 588 470 595 C 471 602 472 610 474 618 C 476 626 478 635 480 642 C 482 649 483 654 484 660 C 485 666 487 673 487 678 C 487 683 487 688 486 692 C 485 696 482 700 480 703 C 478 706 475 710 472 710 C 469 710 466 707 464 704 C 462 701 461 696 460 692 C 459 688 457 678 456 678 C 455 678 454 688 452 692 C 450 696 448 702 446 703 C 444 704 440 701 438 698 C 436 695 435 690 434 685 C 433 680 432 674 432 668 C 432 662 432 655 432 648 C 432 641 433 635 434 628 C 435 621 437 614 436 608 C 435 603 428 601 426 595 C 424 590 425 583 424 575 C 423 567 421 557 420 545 C 419 533 418 518 416 505 C 414 492 412 478 410 468 C 408 458 407 453 406 445 C 405 437 404 429 402 418 C 400 407 398 393 396 380 C 394 367 392 353 390 340 C 388 327 385 312 382 300 C 379 288 377 278 374 268 C 371 258 366 249 362 242 C 358 235 354 228 352 224 C 350 220 349 217 348 216 Z" class="sk"/>
<!-- left_leg -->
<path d="M 275 585 C 274 590 270 603 268 615 C 266 628 264 644 262 660 C 260 676 259 695 258 710 C 257 725 257 738 256 750 C 255 762 255 770 254 780 C 254 790 253 799 253 810 C 253 821 254 833 254 845 C 254 857 255 868 255 880 C 255 893 256 907 256 920 C 256 933 257 947 257 960 C 257 973 258 987 258 1000 C 258 1013 258 1030 258 1040 C 258 1050 259 1054 258 1060 C 257 1066 254 1073 252 1078 C 250 1083 247 1088 244 1092 C 241 1096 238 1101 236 1104 C 234 1107 233 1109 232 1112 C 231 1115 231 1117 232 1120 C 233 1123 235 1126 238 1128 C 241 1130 247 1132 252 1134 C 257 1136 264 1137 270 1138 C 276 1139 283 1139 288 1138 C 293 1137 298 1136 302 1134 C 306 1132 308 1130 310 1128 C 312 1126 312 1123 312 1120 C 312 1117 312 1115 312 1112 C 312 1109 310 1105 310 1100 C 310 1095 310 1087 310 1080 C 310 1073 311 1067 312 1060 C 313 1053 313 1050 314 1040 C 315 1030 315 1013 316 1000 C 317 987 317 973 318 960 C 319 947 319 933 320 920 C 321 907 321 893 322 880 C 323 868 323 857 324 845 C 325 833 325 821 326 810 C 327 799 327 790 328 780 C 329 770 329 760 330 750 C 331 740 331 730 332 720 C 333 710 334 700 334 690 C 335 680 335 670 335 660 C 335 650 335 639 334 630 C 333 621 332 612 330 605 C 328 598 323 593 322 590 Z" class="sk"/>
<!-- right_leg -->
<path d="M 325 585 C 326 590 330 603 332 615 C 334 628 336 644 338 660 C 340 676 341 695 342 710 C 343 725 343 738 344 750 C 345 762 346 770 346 780 C 347 790 347 799 347 810 C 347 821 346 833 346 845 C 346 857 345 868 345 880 C 345 893 344 907 344 920 C 344 933 343 947 343 960 C 343 973 342 987 342 1000 C 342 1013 342 1030 342 1040 C 342 1050 341 1054 342 1060 C 343 1066 346 1073 348 1078 C 350 1083 353 1088 356 1092 C 359 1096 362 1101 364 1104 C 366 1107 367 1109 368 1112 C 369 1115 369 1117 368 1120 C 367 1123 365 1126 362 1128 C 359 1130 353 1132 348 1134 C 343 1136 336 1137 330 1138 C 324 1139 317 1139 312 1138 C 307 1137 302 1136 298 1134 C 294 1132 292 1130 290 1128 C 288 1126 288 1123 288 1120 C 288 1117 288 1115 288 1112 C 288 1109 290 1105 290 1100 C 290 1095 290 1087 290 1080 C 290 1073 289 1067 288 1060 C 287 1053 287 1050 286 1040 C 285 1030 285 1013 284 1000 C 283 987 283 973 282 960 C 281 947 281 933 280 920 C 279 907 279 893 278 880 C 277 868 277 857 276 845 C 275 833 275 821 274 810 C 273 799 273 790 272 780 C 271 770 271 760 270 750 C 269 740 269 730 268 720 C 267 710 267 700 266 690 C 266 680 265 670 265 660 C 265 650 265 639 266 630 C 267 621 268 612 270 605 C 272 598 277 593 278 590 Z" class="sk"/>
<!-- genitalia -->
<path d="M 293 580 C 292 584 289 596 288 604 C 287 612 286 621 286 628 C 286 635 285 642 286 648 C 287 654 288 658 290 662 C 292 666 297 670 300 670 C 303 670 308 666 310 662 C 312 658 313 654 314 648 C 315 642 314 635 314 628 C 314 621 313 612 312 604 C 311 596 308 584 307 580 Z" class="gn"/>
<path d="M 242 245 C 242 248 240 258 240 265 C 241 272 243 279 245 285 C 248 291 250 296 255 300 C 260 304 268 308 275 310 C 282 313 291 313 295 315 C 299 318 299 323 300 325" class="ml"/>
<path d="M 358 245 C 358 248 361 258 360 265 C 360 272 358 279 355 285 C 353 291 350 296 345 300 C 340 304 332 308 325 310 C 318 313 309 313 305 315 C 301 318 301 323 300 325" class="ml"/>
<path d="M 240 268 C 242 271 247 283 252 288 C 257 293 269 295 272 296" class="ml"/>
<path d="M 360 268 C 358 271 353 283 348 288 C 343 293 331 295 328 296" class="ml"/>
<path d="M 276 345 C 280 345 292 347 300 347 C 308 347 320 345 324 345" class="ml"/>
<path d="M 274 392 C 278 392 291 394 300 394 C 309 394 322 392 326 392" class="ml"/>
<path d="M 273 438 C 278 438 291 440 300 440 C 309 440 323 438 327 438" class="ml"/>
<path d="M 274 486 C 278 486 291 488 300 488 C 309 488 322 486 326 486" class="ml"/>
<path d="M 256 500 C 259 507 267 528 272 540 C 277 553 284 569 286 575" class="ml"/>
<path d="M 344 500 C 341 507 333 528 328 540 C 323 553 316 569 314 575" class="ml"/>
<line x1="300" y1="325" x2="300" y2="565" class="ml" stroke-width="0.5"/>
<ellipse cx="258" cy="115" rx="8" ry="15" fill="#e8d0b8" stroke="#c4a088" stroke-width="1"/>
<ellipse cx="342" cy="115" rx="8" ry="15" fill="#e8d0b8" stroke="#c4a088" stroke-width="1"/>
<path d="M 262 68 Q 272 30 300 24 Q 328 30 338 68 Q 325 42 300 36 Q 275 42 262 68" fill="#8a5030"/>
<path d="M 274 100 Q 285 96 296 100" fill="none" stroke="#7a5030" stroke-width="1.8"/>
<path d="M 304 100 Q 315 96 326 100" fill="none" stroke="#7a5030" stroke-width="1.8"/>
<ellipse cx="285" cy="108" rx="9" ry="4" fill="white" stroke="#888" stroke-width="0.5"/>
<circle cx="285" cy="108" r="2.8" fill="#4a6080"/>
<ellipse cx="315" cy="108" rx="9" ry="4" fill="white" stroke="#888" stroke-width="0.5"/>
<circle cx="315" cy="108" r="2.8" fill="#4a6080"/>
<path d="M 298 112 Q 296 130 293 134 Q 300 137 307 134 Q 304 130 302 112" fill="none" stroke="#c4a088" stroke-width="0.8"/>
<path d="M 290 148 Q 300 155 310 148" fill="none" stroke="#b08070" stroke-width="1.2"/>
<circle cx="265" cy="295" r="3" fill="#d4a090" opacity="0.5"/>
<circle cx="335" cy="295" r="3" fill="#d4a090" opacity="0.5"/>
<ellipse cx="300" cy="440" rx="4" ry="6" fill="none" stroke="#c4a088" stroke-width="1.2"/>
</svg>